<?xml version="1.0" encoding="UTF-8"?>
<svg width="45px" height="25px" viewBox="0 0 45 25" version="1.1" xmlns="http://www.w3.org/2000/svg" xmlns:xlink="http://www.w3.org/1999/xlink">
    <title>disney-inactive@1x</title>
    <defs>
        <linearGradient x1="15.912%" y1="50%" x2="101.636%" y2="51.972%" id="linearGradient-1">
            <stop stop-color="#FFFFFF" stop-opacity="0" offset="0%"></stop>
            <stop stop-color="#FFFFFF" offset="100%"></stop>
        </linearGradient>
    </defs>
    <g id="MWeb-/-Empty-&amp;-Error-States" stroke="none" stroke-width="1" fill="none" fill-rule="evenodd">
        <g id="Group">
            <path d="M20.39,16.995 L20.442,17.003 C20.847,17.056 21.244,17.131 21.549,17.268 C21.831,17.393 21.996,17.551 22.146,17.831 C22.376,18.256 22.391,18.853 22.183,19.305 C22.029,19.641 21.689,19.923 21.378,20.072 C21.062,20.222 20.722,20.313 20.374,20.344 C19.722,20.407 19.065,20.29 18.475,20.005 C18.136,19.84 17.722,19.555 17.513,19.187 C17.355,18.913 17.37,18.571 17.551,18.312 C17.85,17.904 18.487,17.814 18.968,17.832 C19.335,17.845 19.994,17.959 20.342,18.082 C20.439,18.117 20.794,18.256 20.856,18.319 C20.904,18.361 20.924,18.425 20.909,18.487 C20.829,18.73 20.239,18.858 20.069,18.884 C19.612,18.954 19.374,18.781 18.855,18.577 C18.717,18.519 18.572,18.479 18.423,18.457 C18.188,18.435 17.903,18.501 17.858,18.758 C17.836,18.892 17.991,19.015 18.11,19.068 C18.355,19.178 18.62,19.234 18.89,19.234 C19.7,19.247 20.61,19.114 21.272,18.644 C21.362,18.58 21.452,18.486 21.452,18.366 C21.455,18.126 21.032,17.978 21.032,17.978 C20.586,17.792 19.76,17.701 19.335,17.666 C18.89,17.628 18.188,17.57 18.02,17.545 C17.844,17.525 17.672,17.483 17.508,17.418 C17.344,17.342 17.22,17.201 17.166,17.028 C17.088,16.724 17.188,16.351 17.356,16.108 C17.799,15.472 18.836,15.23 19.61,15.135 C20.36,15.041 21.572,15.042 22.308,15.433 C22.422,15.494 22.48,15.551 22.456,15.673 C22.408,15.901 22.236,16.048 22.029,16.113 C21.811,16.182 21.359,16.209 21.161,16.218 C20.274,16.268 19.199,16.242 18.356,16.473 C18.289,16.492 18.175,16.523 18.138,16.563 C18.005,16.708 18.383,16.749 18.464,16.765 C18.482,16.77 18.499,16.773 18.517,16.775 L20.386,16.995 M15.105,13.036 C15.105,13.036 15.249,12.82 15.37,12.656 C15.644,12.303 15.952,11.978 16.29,11.684 C16.38,11.606 16.49,11.517 16.49,11.517 C16.49,11.517 16.32,11.534 16.224,11.554 C15.997,11.599 15.663,11.819 15.496,11.964 C15.22,12.2 14.918,12.583 15.055,12.924 C15.075,12.972 15.105,13.036 15.105,13.036 M16.636,13.446 C17.065,13.416 17.481,13.291 17.856,13.08 C18.227,12.873 18.776,12.466 18.718,11.989 C18.702,11.844 18.608,11.719 18.472,11.663 C18.307,11.592 18.22,11.603 18.008,11.663 C17.878,11.697 17.754,11.75 17.64,11.819 C17.213,12.067 16.607,12.598 16.279,13.021 C16.203,13.121 16.126,13.233 16.067,13.31 C16.029,13.356 16,13.4 16.003,13.411 C16.016,13.459 16.465,13.455 16.634,13.443 M15.527,14.257 C15.482,14.305 15.435,14.419 15.385,14.502 C15.357,14.549 15.321,14.591 15.279,14.626 C15.166,14.709 15.07,14.714 14.961,14.617 C14.808,14.475 14.718,14.277 14.713,14.067 C14.71,13.979 14.725,13.88 14.708,13.805 C14.68,13.678 14.553,13.548 14.485,13.427 C14.399,13.255 14.346,13.067 14.332,12.875 C14.304,12.374 14.568,11.913 14.912,11.549 C15.276,11.169 15.714,10.869 16.2,10.667 C16.665,10.471 17.346,10.337 17.855,10.514 C18.053,10.585 18.229,10.704 18.369,10.86 C18.389,10.89 18.412,10.918 18.439,10.94 C18.481,10.956 18.525,10.965 18.569,10.97 C18.748,11.011 18.916,11.091 19.062,11.203 C19.254,11.369 19.359,11.527 19.407,11.758 C19.505,12.22 19.239,12.728 18.935,13.038 C18.415,13.568 17.902,13.943 17.238,14.204 C16.946,14.318 16.491,14.425 16.16,14.395 C16.057,14.387 15.95,14.36 15.85,14.353 C15.763,14.339 15.676,14.317 15.593,14.287 C15.568,14.267 15.536,14.251 15.53,14.257 M16.124,15.287 C16.151,15.292 16.177,15.3 16.203,15.309 C16.436,15.399 16.532,15.614 16.589,15.851 C16.722,16.401 16.779,17.619 16.801,18.096 C16.818,18.453 16.826,18.806 16.841,19.156 C16.854,19.456 16.878,19.855 16.816,20.136 C16.791,20.248 16.724,20.348 16.629,20.414 C16.519,20.484 16.266,20.49 16.128,20.461 C15.786,20.391 15.675,20.171 15.627,19.834 C15.511,19.028 15.567,17.447 15.635,16.779 C15.658,16.559 15.741,15.853 15.855,15.559 C15.895,15.459 15.979,15.259 16.125,15.286 M5.739,16.627 C5.739,16.627 5.231,16.663 4.881,16.702 C4.436,16.75 3.6,16.894 3.118,17.066 C2.973,17.119 2.679,17.241 2.653,17.39 C2.627,17.539 2.722,17.665 2.829,17.79 C2.89,17.862 3.239,18.198 3.337,18.28 C3.747,18.621 4.577,19.148 5.188,19.405 C5.401,19.491 5.746,19.617 5.746,19.617 C5.746,19.617 5.72,18.627 5.726,17.652 C5.726,17.137 5.739,16.628 5.739,16.628 M15.056,17.022 C15.085,17.287 15.016,17.791 15.003,17.857 C14.966,18.043 14.915,18.227 14.851,18.405 C14.766,18.597 14.671,18.785 14.567,18.969 C14.347,19.329 14.077,19.659 13.769,19.949 C12.894,20.704 11.541,21.135 10.379,21.274 C9.537,21.374 8.685,21.351 7.849,21.204 C7.562,21.151 7.135,21.052 7.135,21.052 C7.135,21.052 7.135,21.224 7.123,21.344 C7.108,21.428 7.083,21.511 7.051,21.59 C6.993,21.71 6.878,21.792 6.746,21.808 C6.571,21.841 6.386,21.851 6.224,21.782 C5.959,21.67 5.863,21.422 5.817,21.136 C5.779,20.906 5.74,20.508 5.74,20.508 C5.74,20.508 5.542,20.414 5.376,20.332 C4.88,20.085 4.406,19.795 3.962,19.465 C3.845,19.378 3.342,18.957 3.231,18.852 C2.919,18.556 2.639,18.262 2.426,17.885 C2.261,17.59 2.214,17.328 2.339,17.016 C2.513,16.581 3.137,16.253 3.564,16.066 C3.877,15.928 4.852,15.61 5.257,15.551 C5.448,15.524 5.745,15.47 5.763,15.458 C5.77,15.453 5.776,15.448 5.781,15.442 C5.791,15.429 5.806,14.997 5.803,14.84 C5.8,14.683 5.918,13.665 5.956,13.453 C5.976,13.337 6.062,12.888 6.154,12.771 C6.213,12.691 6.317,12.698 6.402,12.75 C6.866,13.039 7.007,14.04 7.042,14.55 C7.062,14.86 7.072,15.327 7.072,15.327 C7.072,15.327 7.603,15.312 7.933,15.321 C8.269,15.336 8.603,15.373 8.933,15.431 C9.358,15.499 10.182,15.679 10.655,15.919 C11.045,16.117 11.409,16.449 11.527,16.802 C11.637,17.125 11.621,17.348 11.453,17.639 C11.266,17.969 10.91,18.213 10.549,18.233 C10.443,18.239 10.039,18.186 9.913,18.09 C9.868,18.05 9.863,17.981 9.902,17.935 C9.915,17.918 10.104,17.819 10.215,17.76 C10.268,17.732 10.317,17.697 10.361,17.657 C10.454,17.575 10.537,17.485 10.527,17.38 C10.515,17.244 10.368,17.16 10.232,17.105 C9.586,16.849 8.297,16.635 7.672,16.599 C7.429,16.584 7.082,16.572 7.082,16.572 L7.156,20.014 C7.156,20.014 7.442,20.067 7.669,20.106 C7.798,20.126 8.348,20.176 8.494,20.178 C9.608,20.208 10.848,20.108 11.869,19.627 C12.317,19.415 12.728,19.153 13.039,18.797 C13.462,18.303 13.667,17.659 13.608,17.011 C13.545,16.277 13.028,15.405 12.616,14.875 C11.526,13.472 9.656,12.319 8.012,11.643 C6.334,10.953 4.674,10.556 2.892,10.489 C2.432,10.472 1.432,10.495 0.926,10.635 C0.853,10.656 0.78,10.68 0.713,10.695 C0.657,10.709 0.603,10.732 0.554,10.762 L0.529,10.786 C0.529,10.786 0.561,10.803 0.59,10.816 C0.643,10.84 0.87,10.854 0.987,10.876 C1.093,10.895 1.199,10.95 1.243,11.026 C1.287,11.103 1.289,11.156 1.24,11.217 C1.126,11.357 0.694,11.333 0.503,11.303 C0.313,11.273 0.06,11.211 0.015,11.038 C-0.038,10.835 0.058,10.637 0.162,10.454 C0.372,10.087 0.67,9.897 1.109,9.777 C1.761,9.603 2.43,9.497 3.104,9.463 C4.434,9.413 5.694,9.646 6.982,10.037 C7.806,10.293 8.612,10.607 9.392,10.975 C9.995,11.273 10.581,11.603 11.148,11.963 C11.29,12.056 12.118,12.665 12.247,12.773 C12.515,12.992 12.867,13.308 13.121,13.559 C13.613,14.047 14.225,14.795 14.522,15.388 C14.594,15.53 14.649,15.67 14.742,15.834 C14.816,15.994 14.879,16.158 14.932,16.325 C14.954,16.422 14.987,16.564 14.992,16.569 C14.998,16.619 15.0630502,16.909 15.056,17.021 L15.056,17.022 Z M31.777,16.262 C31.154,16.405 29.517,16.485 29.517,16.485 L29.31,17.132 C29.31,17.132 30.128,17.062 30.724,17.124 C30.724,17.124 30.917,17.101 30.939,17.343 C30.943,17.499 30.936,17.655 30.92,17.81 C30.92,17.81 30.908,17.956 30.7,17.993 C30.476,18.031 28.937,18.09 28.937,18.09 L28.687,18.933 C28.687,18.933 28.594,19.128 28.802,19.073 C28.995,19.019 30.608,18.718 30.818,18.762 C31.043,18.818 31.292,19.118 31.22,19.392 C31.134,19.731 29.523,20.758 28.543,20.686 C28.543,20.686 28.028,20.719 27.593,20.023 C27.187,19.361 27.746,18.106 27.746,18.106 C27.746,18.106 27.49,17.523 27.676,17.322 C27.676,17.322 27.786,17.222 28.109,17.199 L28.503,16.382 C28.503,16.382 28.053,16.413 27.786,16.082 C27.536,15.769 27.516,15.625 27.707,15.538 C27.911,15.438 29.784,15.095 31.072,15.138 C31.072,15.138 31.52,15.095 31.908,15.871 C31.908,15.871 32.096,16.185 31.776,16.261 L31.777,16.261 L31.777,16.262 L31.777,16.262 Z M26.932,19.4 C26.767,19.789 26.331,20.203 25.789,19.946 C25.247,19.689 24.402,17.944 24.402,17.944 C24.402,17.944 24.079,17.294 24.016,17.31 C24.016,17.31 23.946,17.184 23.904,17.894 C23.861,18.604 23.912,19.98 23.63,20.197 C23.365,20.415 23.039,20.329 22.87,20.074 C22.719,19.824 22.655,19.228 22.738,18.182 C22.836,17.134 23.079,16.02 23.391,15.672 C23.702,15.325 23.951,15.578 24.047,15.669 C24.047,15.669 24.463,16.045 25.147,17.154 L25.269,17.358 C25.269,17.358 25.891,18.403 25.959,18.4 C25.959,18.4 26.009,18.448 26.054,18.414 C26.12,18.395 26.093,18.06 26.093,18.06 C26.093,18.06 25.964,16.922 25.396,14.995 C25.346,14.845 25.336,14.685 25.369,14.53 C25.426,14.302 25.654,14.409 25.654,14.409 C25.654,14.409 26.534,14.852 26.961,16.285 C27.388,17.718 27.101,19.011 26.933,19.402 L26.932,19.4 L26.932,19.4 Z M36.406,18.542 C36.005,19.242 34.873,20.705 33.37,20.36 C32.874,21.564 32.457,22.782 32.218,24.603 C32.218,24.603 32.165,24.957 31.871,24.833 C31.58,24.731 31.099,24.246 31.001,23.576 C30.896,22.696 31.29,21.206 32.091,19.496 C31.858,19.117 31.698,18.574 31.835,17.799 C31.835,17.799 32.036,16.364 33.479,15.069 C33.479,15.069 33.652,14.919 33.752,14.963 C33.862,15.01 33.811,15.476 33.723,15.705 C33.636,15.935 32.991,17.045 32.991,17.045 C32.991,17.045 32.591,17.795 32.703,18.388 C33.46,17.225 35.179,14.88 36.245,15.62 C36.603,15.876 36.768,16.433 36.768,17.034 C36.768,17.56 36.641,18.121 36.406,18.541 L36.406,18.542 L36.406,18.542 Z M36.094,16.7 C36.094,16.7 36.034,16.238 35.583,16.747 C35.194,17.177 34.493,17.982 33.929,19.077 C34.521,19.01 35.092,18.688 35.265,18.525 C35.545,18.275 36.2,17.6 36.095,16.7 L36.094,16.7 Z M44.687,16.594 L41.932,16.594 C41.877,15.659 41.762,14.727 41.586,13.807 C41.568,13.71 41.483,13.639 41.384,13.639 L40.748,13.639 C40.692,13.639 40.64,13.664 40.605,13.707 C40.569,13.75 40.555,13.807 40.565,13.862 C40.745,14.764 40.862,15.677 40.916,16.595 L38.264,16.595 C38.204,16.595 38.148,16.619 38.106,16.66 C38.064,16.702 38.04,16.759 38.04,16.818 L38.04,17.391 C38.04,17.515 38.14,17.615 38.264,17.615 L40.953,17.615 C40.953,17.757 40.956,17.881 40.956,18.002 C40.961,18.762 40.922,19.52 40.841,20.275 C40.835,20.333 40.854,20.392 40.893,20.435 C40.933,20.48 40.988,20.505 41.047,20.505 L41.637,20.505 C41.751,20.505 41.847,20.419 41.858,20.305 C41.938,19.54 41.977,18.771 41.973,18.002 C41.973,17.883 41.973,17.756 41.97,17.615 L44.687,17.615 C44.811,17.615 44.911,17.515 44.911,17.391 L44.911,16.818 C44.911,16.758 44.887,16.701 44.845,16.659 C44.803,16.617 44.746,16.594 44.687,16.594 L44.687,16.594 Z" id="Shape" fill-opacity="0.7" fill="#FFFFFF"></path>
            <path d="M41.227,12.286 C38.578,5.773 32.547,1.259 25.551,0.552 C18.556,-0.154 11.744,3.065 7.846,8.915 C7.807,8.973 7.798,9.045 7.82,9.111 C7.843,9.177 7.895,9.229 7.96,9.251 L8.455,9.421 C8.483,9.431 8.513,9.436 8.543,9.436 C8.635,9.436 8.72,9.39 8.771,9.314 C12.116,4.384 17.687,1.431 23.645,1.432 C30.87,1.434 37.393,5.758 40.209,12.412 C40.249,12.508 40.343,12.571 40.447,12.571 L41.037,12.571 C41.105,12.571 41.169,12.536 41.207,12.48 C41.247,12.423 41.254,12.35 41.227,12.286 L41.227,12.286 Z" id="Path" fill="url(#linearGradient-1)" fill-rule="nonzero"></path>
        </g>
    </g>
</svg>